<?xml version="1.0" encoding="UTF-8"?>
<svg xmlns="http://www.w3.org/2000/svg" width="1400" height="844">
<rect width="100%" height="100%" fill="white"/>
<text x="20" y="35" font-size="24" font-family="Arial">test_invalid_address_error</text>
<line x1="220" y1="804" x2="1360" y2="804" stroke="black"/>
<text x="1310" y="829" font-size="14" font-family="Arial">time</text>
<line x1="220.00" y1="55" x2="220.00" y2="804" stroke="#eeeeee"/>
<text x="210.00" y="822" font-size="11" font-family="Arial" fill="#666">0</text>
<line x1="332.00" y1="55" x2="332.00" y2="804" stroke="#eeeeee"/>
<text x="322.00" y="822" font-size="11" font-family="Arial" fill="#666">12000</text>
<line x1="444.00" y1="55" x2="444.00" y2="804" stroke="#eeeeee"/>
<text x="434.00" y="822" font-size="11" font-family="Arial" fill="#666">24000</text>
<line x1="556.00" y1="55" x2="556.00" y2="804" stroke="#eeeeee"/>
<text x="546.00" y="822" font-size="11" font-family="Arial" fill="#666">36000</text>
<line x1="668.00" y1="55" x2="668.00" y2="804" stroke="#eeeeee"/>
<text x="658.00" y="822" font-size="11" font-family="Arial" fill="#666">48000</text>
<line x1="780.00" y1="55" x2="780.00" y2="804" stroke="#eeeeee"/>
<text x="770.00" y="822" font-size="11" font-family="Arial" fill="#666">60000</text>
<line x1="892.00" y1="55" x2="892.00" y2="804" stroke="#eeeeee"/>
<text x="882.00" y="822" font-size="11" font-family="Arial" fill="#666">72000</text>
<line x1="1004.00" y1="55" x2="1004.00" y2="804" stroke="#eeeeee"/>
<text x="994.00" y="822" font-size="11" font-family="Arial" fill="#666">84000</text>
<line x1="1116.00" y1="55" x2="1116.00" y2="804" stroke="#eeeeee"/>
<text x="1106.00" y="822" font-size="11" font-family="Arial" fill="#666">96000</text>
<line x1="1228.00" y1="55" x2="1228.00" y2="804" stroke="#eeeeee"/>
<text x="1218.00" y="822" font-size="11" font-family="Arial" fill="#666">108000</text>
<line x1="1340.00" y1="55" x2="1340.00" y2="804" stroke="#eeeeee"/>
<text x="1330.00" y="822" font-size="11" font-family="Arial" fill="#666">120000</text>
<text x="20" y="93.00" font-size="15" font-family="Arial">clk</text>
<line x1="220" y1="88.00" x2="1360" y2="88.00" stroke="#dddddd"/>
<polyline points="" fill="none" stroke="black" stroke-width="2"/>
<text x="20" y="135.00" font-size="15" font-family="Arial">rst_n</text>
<line x1="220" y1="130.00" x2="1360" y2="130.00" stroke="#dddddd"/>
<polyline points="" fill="none" stroke="black" stroke-width="2"/>
<text x="20" y="177.00" font-size="15" font-family="Arial">s_axi_awvalid</text>
<line x1="220" y1="172.00" x2="1360" y2="172.00" stroke="#dddddd"/>
<polyline points="220.00,172.00 220.00,172.00 220.00,172.00 686.67,172.00 686.67,154.00 873.33,154.00 873.33,172.00 1340.00,172.00" fill="none" stroke="black" stroke-width="2"/>
<text x="20" y="219.00" font-size="15" font-family="Arial">s_axi_awready</text>
<line x1="220" y1="214.00" x2="1360" y2="214.00" stroke="#dddddd"/>
<polyline points="220.00,214.00 220.00,214.00 220.00,214.00 220.00,214.00 220.00,214.00 780.00,214.00 780.00,196.00 780.00,196.00 780.00,196.00 873.33,196.00 873.33,214.00 873.33,214.00 873.33,214.00 1340.00,214.00" fill="none" stroke="black" stroke-width="2"/>
<text x="20" y="261.00" font-size="15" font-family="Arial">s_axi_wvalid</text>
<line x1="220" y1="256.00" x2="1360" y2="256.00" stroke="#dddddd"/>
<polyline points="220.00,256.00 220.00,256.00 220.00,256.00 686.67,256.00 686.67,238.00 873.33,238.00 873.33,256.00 1340.00,256.00" fill="none" stroke="black" stroke-width="2"/>
<text x="20" y="303.00" font-size="15" font-family="Arial">s_axi_wready</text>
<line x1="220" y1="298.00" x2="1360" y2="298.00" stroke="#dddddd"/>
<polyline points="220.00,298.00 220.00,298.00 220.00,298.00 220.00,298.00 220.00,298.00 780.00,298.00 780.00,280.00 780.00,280.00 780.00,280.00 873.33,280.00 873.33,298.00 873.33,298.00 873.33,298.00 1340.00,298.00" fill="none" stroke="black" stroke-width="2"/>
<text x="20" y="345.00" font-size="15" font-family="Arial">s_axi_bvalid</text>
<line x1="220" y1="340.00" x2="1360" y2="340.00" stroke="#dddddd"/>
<polyline points="220.00,340.00 220.00,340.00 220.00,340.00 220.00,340.00 220.00,340.00 873.33,340.00 873.33,322.00 873.33,322.00 873.33,322.00 966.67,322.00 966.67,340.00 966.67,340.00 966.67,340.00 1340.00,340.00" fill="none" stroke="black" stroke-width="2"/>
<text x="20" y="387.00" font-size="15" font-family="Arial">s_axi_bready</text>
<line x1="220" y1="382.00" x2="1360" y2="382.00" stroke="#dddddd"/>
<polyline points="220.00,382.00 220.00,382.00 220.00,382.00 873.33,382.00 873.33,364.00 966.67,364.00 966.67,382.00 1340.00,382.00" fill="none" stroke="black" stroke-width="2"/>
<text x="20" y="429.00" font-size="15" font-family="Arial">s_axi_arvalid</text>
<line x1="220" y1="424.00" x2="1360" y2="424.00" stroke="#dddddd"/>
<polyline points="220.00,424.00 220.00,424.00 220.00,424.00 1060.00,424.00 1060.00,406.00 1246.67,406.00 1246.67,424.00 1340.00,424.00" fill="none" stroke="black" stroke-width="2"/>
<text x="20" y="471.00" font-size="15" font-family="Arial">s_axi_arready</text>
<line x1="220" y1="466.00" x2="1360" y2="466.00" stroke="#dddddd"/>
<polyline points="220.00,466.00 220.00,466.00 220.00,466.00 220.00,466.00 220.00,466.00 1153.33,466.00 1153.33,448.00 1153.33,448.00 1153.33,448.00 1246.67,448.00 1246.67,466.00 1246.67,466.00 1246.67,466.00 1340.00,466.00" fill="none" stroke="black" stroke-width="2"/>
<text x="20" y="513.00" font-size="15" font-family="Arial">s_axi_rvalid</text>
<line x1="220" y1="508.00" x2="1360" y2="508.00" stroke="#dddddd"/>
<polyline points="220.00,508.00 220.00,508.00 220.00,508.00 220.00,508.00 220.00,508.00 1153.33,508.00 1153.33,490.00 1153.33,490.00 1153.33,490.00 1340.00,490.00 1340.00,508.00 1340.00,508.00 1340.00,508.00 1340.00,508.00" fill="none" stroke="black" stroke-width="2"/>
<text x="20" y="555.00" font-size="15" font-family="Arial">s_axi_rready</text>
<line x1="220" y1="550.00" x2="1360" y2="550.00" stroke="#dddddd"/>
<polyline points="220.00,550.00 220.00,550.00 220.00,550.00 1246.67,550.00 1246.67,532.00 1340.00,532.00" fill="none" stroke="black" stroke-width="2"/>
<text x="20" y="597.00" font-size="15" font-family="Arial">s_axi_rlast</text>
<line x1="220" y1="592.00" x2="1360" y2="592.00" stroke="#dddddd"/>
<polyline points="220.00,592.00 220.00,592.00 220.00,592.00 220.00,592.00 220.00,592.00 1153.33,592.00 1153.33,574.00 1153.33,574.00 1153.33,574.00 1340.00,574.00 1340.00,592.00 1340.00,592.00 1340.00,592.00 1340.00,592.00" fill="none" stroke="black" stroke-width="2"/>
<text x="20" y="639.00" font-size="15" font-family="Arial">penable</text>
<line x1="220" y1="634.00" x2="1360" y2="634.00" stroke="#dddddd"/>
<polyline points="220.00,634.00 220.00,634.00 220.00,634.00 1340.00,634.00" fill="none" stroke="black" stroke-width="2"/>
<text x="20" y="681.00" font-size="15" font-family="Arial">pwrite</text>
<line x1="220" y1="676.00" x2="1360" y2="676.00" stroke="#dddddd"/>
<polyline points="220.00,676.00 220.00,676.00 220.00,676.00 1340.00,676.00" fill="none" stroke="black" stroke-width="2"/>
<text x="20" y="723.00" font-size="15" font-family="Arial">pready</text>
<line x1="220" y1="718.00" x2="1360" y2="718.00" stroke="#dddddd"/>
<polyline points="220.00,700.00 220.00,700.00 220.00,700.00 1340.00,700.00" fill="none" stroke="black" stroke-width="2"/>
<text x="20" y="765.00" font-size="15" font-family="Arial">pslverr</text>
<line x1="220" y1="760.00" x2="1360" y2="760.00" stroke="#dddddd"/>
<polyline points="220.00,760.00 220.00,760.00 220.00,760.00 1340.00,760.00" fill="none" stroke="black" stroke-width="2"/>
</svg>