<?xml version="1.0" encoding="UTF-8"?>
<svg xmlns="http://www.w3.org/2000/svg" width="1400" height="844">
<rect width="100%" height="100%" fill="white"/>
<text x="20" y="35" font-size="24" font-family="Arial">test_incr_burst</text>
<line x1="220" y1="804" x2="1360" y2="804" stroke="black"/>
<text x="1310" y="829" font-size="14" font-family="Arial">time</text>
<line x1="220.00" y1="55" x2="220.00" y2="804" stroke="#eeeeee"/>
<text x="210.00" y="822" font-size="11" font-family="Arial" fill="#666">0</text>
<line x1="332.00" y1="55" x2="332.00" y2="804" stroke="#eeeeee"/>
<text x="322.00" y="822" font-size="11" font-family="Arial" fill="#666">33000</text>
<line x1="444.00" y1="55" x2="444.00" y2="804" stroke="#eeeeee"/>
<text x="434.00" y="822" font-size="11" font-family="Arial" fill="#666">66000</text>
<line x1="556.00" y1="55" x2="556.00" y2="804" stroke="#eeeeee"/>
<text x="546.00" y="822" font-size="11" font-family="Arial" fill="#666">99000</text>
<line x1="668.00" y1="55" x2="668.00" y2="804" stroke="#eeeeee"/>
<text x="658.00" y="822" font-size="11" font-family="Arial" fill="#666">132000</text>
<line x1="780.00" y1="55" x2="780.00" y2="804" stroke="#eeeeee"/>
<text x="770.00" y="822" font-size="11" font-family="Arial" fill="#666">165000</text>
<line x1="892.00" y1="55" x2="892.00" y2="804" stroke="#eeeeee"/>
<text x="882.00" y="822" font-size="11" font-family="Arial" fill="#666">198000</text>
<line x1="1004.00" y1="55" x2="1004.00" y2="804" stroke="#eeeeee"/>
<text x="994.00" y="822" font-size="11" font-family="Arial" fill="#666">231000</text>
<line x1="1116.00" y1="55" x2="1116.00" y2="804" stroke="#eeeeee"/>
<text x="1106.00" y="822" font-size="11" font-family="Arial" fill="#666">264000</text>
<line x1="1228.00" y1="55" x2="1228.00" y2="804" stroke="#eeeeee"/>
<text x="1218.00" y="822" font-size="11" font-family="Arial" fill="#666">297000</text>
<line x1="1340.00" y1="55" x2="1340.00" y2="804" stroke="#eeeeee"/>
<text x="1330.00" y="822" font-size="11" font-family="Arial" fill="#666">330000</text>
<text x="20" y="93.00" font-size="15" font-family="Arial">clk</text>
<line x1="220" y1="88.00" x2="1360" y2="88.00" stroke="#dddddd"/>
<polyline points="" fill="none" stroke="black" stroke-width="2"/>
<text x="20" y="135.00" font-size="15" font-family="Arial">rst_n</text>
<line x1="220" y1="130.00" x2="1360" y2="130.00" stroke="#dddddd"/>
<polyline points="" fill="none" stroke="black" stroke-width="2"/>
<text x="20" y="177.00" font-size="15" font-family="Arial">s_axi_awvalid</text>
<line x1="220" y1="172.00" x2="1360" y2="172.00" stroke="#dddddd"/>
<polyline points="220.00,172.00 220.00,172.00 220.00,172.00 389.70,172.00 389.70,154.00 457.58,154.00 457.58,172.00 1340.00,172.00" fill="none" stroke="black" stroke-width="2"/>
<text x="20" y="219.00" font-size="15" font-family="Arial">s_axi_awready</text>
<line x1="220" y1="214.00" x2="1360" y2="214.00" stroke="#dddddd"/>
<polyline points="220.00,214.00 220.00,214.00 220.00,214.00 220.00,214.00 220.00,214.00 423.64,214.00 423.64,196.00 423.64,196.00 423.64,196.00 457.58,196.00 457.58,214.00 457.58,214.00 457.58,214.00 1340.00,214.00" fill="none" stroke="black" stroke-width="2"/>
<text x="20" y="261.00" font-size="15" font-family="Arial">s_axi_wvalid</text>
<line x1="220" y1="256.00" x2="1360" y2="256.00" stroke="#dddddd"/>
<polyline points="220.00,256.00 220.00,256.00 220.00,256.00 389.70,256.00 389.70,238.00 763.03,238.00 763.03,256.00 1340.00,256.00" fill="none" stroke="black" stroke-width="2"/>
<text x="20" y="303.00" font-size="15" font-family="Arial">s_axi_wready</text>
<line x1="220" y1="298.00" x2="1360" y2="298.00" stroke="#dddddd"/>
<polyline points="220.00,298.00 220.00,298.00 220.00,298.00 220.00,298.00 220.00,298.00 423.64,298.00 423.64,280.00 423.64,280.00 423.64,280.00 457.58,280.00 457.58,298.00 457.58,298.00 457.58,298.00 525.45,298.00 525.45,280.00 525.45,280.00 525.45,280.00 559.39,280.00 559.39,298.00 559.39,298.00 559.39,298.00 627.27,298.00 627.27,280.00 627.27,280.00 627.27,280.00 661.21,280.00 661.21,298.00 661.21,298.00 661.21,298.00 729.09,298.00 729.09,280.00 729.09,280.00 729.09,280.00 763.03,280.00 763.03,298.00 763.03,298.00 763.03,298.00 1340.00,298.00" fill="none" stroke="black" stroke-width="2"/>
<text x="20" y="345.00" font-size="15" font-family="Arial">s_axi_bvalid</text>
<line x1="220" y1="340.00" x2="1360" y2="340.00" stroke="#dddddd"/>
<polyline points="220.00,340.00 220.00,340.00 220.00,340.00 220.00,340.00 220.00,340.00 830.91,340.00 830.91,322.00 830.91,322.00 830.91,322.00 864.85,322.00 864.85,340.00 864.85,340.00 864.85,340.00 1340.00,340.00" fill="none" stroke="black" stroke-width="2"/>
<text x="20" y="387.00" font-size="15" font-family="Arial">s_axi_bready</text>
<line x1="220" y1="382.00" x2="1360" y2="382.00" stroke="#dddddd"/>
<polyline points="220.00,382.00 220.00,382.00 220.00,382.00 763.03,382.00 763.03,364.00 864.85,364.00 864.85,382.00 1340.00,382.00" fill="none" stroke="black" stroke-width="2"/>
<text x="20" y="429.00" font-size="15" font-family="Arial">s_axi_arvalid</text>
<line x1="220" y1="424.00" x2="1360" y2="424.00" stroke="#dddddd"/>
<polyline points="220.00,424.00 220.00,424.00 220.00,424.00 898.79,424.00 898.79,406.00 966.67,406.00 966.67,424.00 1340.00,424.00" fill="none" stroke="black" stroke-width="2"/>
<text x="20" y="471.00" font-size="15" font-family="Arial">s_axi_arready</text>
<line x1="220" y1="466.00" x2="1360" y2="466.00" stroke="#dddddd"/>
<polyline points="220.00,466.00 220.00,466.00 220.00,466.00 220.00,466.00 220.00,466.00 932.73,466.00 932.73,448.00 932.73,448.00 932.73,448.00 966.67,448.00 966.67,466.00 966.67,466.00 966.67,466.00 1340.00,466.00" fill="none" stroke="black" stroke-width="2"/>
<text x="20" y="513.00" font-size="15" font-family="Arial">s_axi_rvalid</text>
<line x1="220" y1="508.00" x2="1360" y2="508.00" stroke="#dddddd"/>
<polyline points="220.00,508.00 220.00,508.00 220.00,508.00 220.00,508.00 220.00,508.00 1000.61,508.00 1000.61,490.00 1000.61,490.00 1000.61,490.00 1034.55,490.00 1034.55,508.00 1034.55,508.00 1034.55,508.00 1102.42,508.00 1102.42,490.00 1102.42,490.00 1102.42,490.00 1136.36,490.00 1136.36,508.00 1136.36,508.00 1136.36,508.00 1204.24,508.00 1204.24,490.00 1204.24,490.00 1204.24,490.00 1238.18,490.00 1238.18,508.00 1238.18,508.00 1238.18,508.00 1306.06,508.00 1306.06,490.00 1306.06,490.00 1306.06,490.00 1340.00,490.00 1340.00,508.00 1340.00,508.00 1340.00,508.00 1340.00,508.00" fill="none" stroke="black" stroke-width="2"/>
<text x="20" y="555.00" font-size="15" font-family="Arial">s_axi_rready</text>
<line x1="220" y1="550.00" x2="1360" y2="550.00" stroke="#dddddd"/>
<polyline points="220.00,550.00 220.00,550.00 220.00,550.00 966.67,550.00 966.67,532.00 1340.00,532.00" fill="none" stroke="black" stroke-width="2"/>
<text x="20" y="597.00" font-size="15" font-family="Arial">s_axi_rlast</text>
<line x1="220" y1="592.00" x2="1360" y2="592.00" stroke="#dddddd"/>
<polyline points="220.00,592.00 220.00,592.00 220.00,592.00 220.00,592.00 220.00,592.00 1306.06,592.00 1306.06,574.00 1306.06,574.00 1306.06,574.00 1340.00,574.00 1340.00,592.00 1340.00,592.00 1340.00,592.00 1340.00,592.00" fill="none" stroke="black" stroke-width="2"/>
<text x="20" y="639.00" font-size="15" font-family="Arial">penable</text>
<line x1="220" y1="634.00" x2="1360" y2="634.00" stroke="#dddddd"/>
<polyline points="220.00,634.00 220.00,634.00 220.00,634.00 457.58,634.00 457.58,616.00 491.52,616.00 491.52,634.00 559.39,634.00 559.39,616.00 593.33,616.00 593.33,634.00 661.21,634.00 661.21,616.00 695.15,616.00 695.15,634.00 763.03,634.00 763.03,616.00 796.97,616.00 796.97,634.00 966.67,634.00 966.67,616.00 1000.61,616.00 1000.61,634.00 1068.48,634.00 1068.48,616.00 1102.42,616.00 1102.42,634.00 1170.30,634.00 1170.30,616.00 1204.24,616.00 1204.24,634.00 1272.12,634.00 1272.12,616.00 1306.06,616.00 1306.06,634.00 1340.00,634.00" fill="none" stroke="black" stroke-width="2"/>
<text x="20" y="681.00" font-size="15" font-family="Arial">pwrite</text>
<line x1="220" y1="676.00" x2="1360" y2="676.00" stroke="#dddddd"/>
<polyline points="220.00,676.00 220.00,676.00 220.00,676.00 423.64,676.00 423.64,658.00 932.73,658.00 932.73,676.00 1340.00,676.00" fill="none" stroke="black" stroke-width="2"/>
<text x="20" y="723.00" font-size="15" font-family="Arial">pready</text>
<line x1="220" y1="718.00" x2="1360" y2="718.00" stroke="#dddddd"/>
<polyline points="220.00,700.00 220.00,700.00 220.00,700.00 1340.00,700.00" fill="none" stroke="black" stroke-width="2"/>
<text x="20" y="765.00" font-size="15" font-family="Arial">pslverr</text>
<line x1="220" y1="760.00" x2="1360" y2="760.00" stroke="#dddddd"/>
<polyline points="220.00,760.00 220.00,760.00 220.00,760.00 1340.00,760.00" fill="none" stroke="black" stroke-width="2"/>
</svg>